<svg xmlns="http://www.w3.org/2000/svg" id="Layer_1" viewBox="0 0 331.5 75.3"><title>Nivolet</title><path d="M47.8 74.5L24.1 24.1l-5.9 29.5c-.3 1.6-.3 1.8.4 3.5l7.2 17.3v.2H0v-.2L14.1 57c1.3-1.6 1.4-1.8 1.7-3.5l6.3-31c.3-1.6.4-1.9-.1-3.2l-7.8-16 .1-.3h23.6l24.3 52.2L68.5 24c.3-1.6.3-1.8-.4-3.5L60.8 3.3l.1-.3h25.8l-.1.2-14 17.3c-1.3 1.6-1.5 1.8-1.8 3.5L60.6 74.5H47.8z"/><path d="M76.5 64.9c0-2.3.5-5.3.9-7.2L84 31.1c.5-2.1.2-2.6-.7-3.3l-4.7-3v-.2l26.3-1.6-8.6 35.7c-.5 2.1-.7 3.5-.7 4.7 0 1.3.5 2.2 1.8 2.2 1.2 0 2.2-.6 3.2-1.5 1.5-1.4 2.7-3 4-5.8l.2.1c-2.2 10.3-9.8 17-18.4 17-7.5-.1-9.9-5.8-9.9-10.5zm31-54.7c0 5.9-4.7 9.1-10.1 9.1-4.8 0-9.2-2.6-9.2-7.7 0-6 5.1-9.2 10.4-9.2 5-.1 8.9 2.7 8.9 7.8zM110.6 64.6c0-2.2.5-5.6 1.5-10l3-12.9c.5-2.2 1.3-4.9 1.3-6.7 0-1.6-.7-2.3-2-2.3-2 0-4.1 1.7-7.6 6.1l-.2-.1C111 28 117.1 23 125 23c7.1 0 10.5 4.1 10.5 11.5 0 3.9-.9 7.9-2 11.9l-3 10.7c-.6 2-.9 3.9-.9 5.2 0 2.5 1 4.4 3.9 4.4 6.7 0 11.8-10.3 11.8-21.2 0-4.9-1-9.1-3.2-13.1-.8-1.5-1.8-3-2.9-4.5v-.2l18.4-4.6c-1.5 22.7-16.5 52.3-35.6 52.3-8-.1-11.4-5.1-11.4-10.8zM157.2 53.5c0-17.9 13.7-30.5 31.4-30.5 10.4 0 23 4.6 23 21.9 0 18.5-14.2 30.5-31.2 30.5-10.8-.1-23.2-4.9-23.2-21.9zM192.1 31c0-2.5-.1-6-2.6-6-6.5-.1-12.7 24.1-12.7 42.3 0 2.5.1 6 2.6 6 6.5.1 12.7-24.1 12.7-42.3zM233.9 58.6c-.5 2.1-.5 3.5-.5 4.2 0 1.7.6 2.7 2.2 2.7 1.2 0 2.2-.6 3.2-1.5 1.5-1.4 2.7-3 4-5.8l.2.1c-1.3 6.1-4.5 11-8.6 13.9-2.8 2-6.2 3-9.7 3-6.9 0-10.2-5.1-10.2-11 0-2.1.4-5 .8-6.9l11-48.8c.4-1.9 0-2.2-1-2.8l-4.5-2.5V3L247 0l-13.1 58.6zM245.2 54c0-16.5 13-31 31.8-31 9.9 0 16.8 4 16.8 11.7 0 8.5-8.4 15.6-28 16.9v.6c0 8.8 3.9 12 9.8 12 6 0 11-3.4 15.1-9.4l.2.1c-4 14.3-14.5 20.4-25.2 20.4-12.6 0-20.5-8.5-20.5-21.3zm20.7-3.9c10.7-2.2 13.8-11.1 13.8-19.5 0-3.4-.5-5.6-2.3-5.6-4.6 0-10.8 13.8-11.5 25.1zM296.3 64.9c0-2.3.4-5.2.8-7.2l7-31.1h-6.3v-2h5.3c1.7 0 2.5-.4 3.6-1.2l19.9-18.9h.2l-4.2 20.1h8.9v2h-9.4l-6.5 32c-.4 2.1-.5 3.4-.5 4.6 0 1.3.5 2.3 1.9 2.3 1.2 0 2.2-.6 3.2-1.5 1.5-1.4 2.7-3 4-5.8l.2.1c-1.2 5.8-4.2 10.5-7.9 13.4-2.9 2.3-6.5 3.6-10.3 3.6-7.4 0-9.9-5.7-9.9-10.4z"/></svg>
